<svg xmlns="http://www.w3.org/2000/svg" version="1.1" xmlns:xlink="http://www.w3.org/1999/xlink" xmlns:svgjs="http://svgjs.dev/svgjs" viewBox="0 0 800 800"><defs><linearGradient x1="50%" y1="0%" x2="50%" y2="100%" id="nnneon-grad"><stop stop-color="hsl(127, 100%, 82%)" stop-opacity="1" offset="0%"></stop><stop stop-color="hsl(127, 100%, 82%)" stop-opacity="1" offset="100%"></stop></linearGradient><filter id="nnneon-filter" x="-100%" y="-100%" width="400%" height="400%" filterUnits="objectBoundingBox" primitiveUnits="userSpaceOnUse" color-interpolation-filters="sRGB">
	<feGaussianBlur stdDeviation="17 8" x="0%" y="0%" width="100%" height="100%" in="SourceGraphic" edgeMode="none" result="blur"></feGaussianBlur></filter><filter id="nnneon-filter2" x="-100%" y="-100%" width="400%" height="400%" filterUnits="objectBoundingBox" primitiveUnits="userSpaceOnUse" color-interpolation-filters="sRGB">
	<feGaussianBlur stdDeviation="10 17" x="0%" y="0%" width="100%" height="100%" in="SourceGraphic" edgeMode="none" result="blur"></feGaussianBlur></filter></defs><g stroke-width="16" stroke="url(#nnneon-grad)" fill="none"><path d="M385.73856045580453 209.99798199526248C391.5812514218205 198.1916729081605 408.4187666185474 198.1916729081605 414.2614575845634 209.99798199526248L595.3291873938551 575.8885480081265C600.5624691441892 586.4633094896467 592.8676833294687 598.8567517375493 581.0693299762529 598.8567517375493H218.93068806411497C207.13233471089916 598.8567517375493 199.43754889617884 586.4633094896467 204.67083064651285 575.8885480081265L385.73856045580453 209.99798199526248Z " filter="url(#nnneon-filter)"></path><path d="M397.73856045580453 209.99798199526248C403.5812514218205 198.1916729081605 420.4187666185474 198.1916729081605 426.2614575845634 209.99798199526248L607.3291873938551 575.8885480081265C612.5624691441892 586.4633094896467 604.8676833294687 598.8567517375493 593.0693299762529 598.8567517375493H230.93068806411497C219.13233471089916 598.8567517375493 211.43754889617884 586.4633094896467 216.67083064651285 575.8885480081265L397.73856045580453 209.99798199526248Z " filter="url(#nnneon-filter2)" opacity="0.25"></path><path d="M373.73856045580453 209.99798199526248C379.5812514218205 198.1916729081605 396.4187666185474 198.1916729081605 402.2614575845634 209.99798199526248L583.3291873938551 575.8885480081265C588.5624691441892 586.4633094896467 580.8676833294687 598.8567517375493 569.0693299762529 598.8567517375493H206.93068806411497C195.13233471089916 598.8567517375493 187.43754889617884 586.4633094896467 192.67083064651285 575.8885480081265L373.73856045580453 209.99798199526248Z " filter="url(#nnneon-filter2)" opacity="0.25"></path><path d="M385.73856045580453 209.99798199526248C391.5812514218205 198.1916729081605 408.4187666185474 198.1916729081605 414.2614575845634 209.99798199526248L595.3291873938551 575.8885480081265C600.5624691441892 586.4633094896467 592.8676833294687 598.8567517375493 581.0693299762529 598.8567517375493H218.93068806411497C207.13233471089916 598.8567517375493 199.43754889617884 586.4633094896467 204.67083064651285 575.8885480081265L385.73856045580453 209.99798199526248Z "></path></g></svg>